# xmcd
#
# Track frame offsets: 
#        150
#        16386
#        30406
#        48875
#        62630
#        80079
#        93381
#        107481
#        122964
#        139209
#        155741
#        170783
#        184733
#        200095
#        218175
#        239242
#
# Disc length: 3349 seconds
#
# Revision: 0
# Processed by: cddbd v1.5.2PL0 Copyright (c) Steve Scherf et al.
# Submitted via: ExactAudioCopy v0.99pb5
#
DISCID=ec0d1310
DTITLE=Dagmar - Lieder für Gott und die Welt
DYEAR=2010
DGENRE=Gospel
TTITLE0=Lieber Gott hörst du mich nicht
TTITLE1=Kinder der Nacht
TTITLE2=Mittendrin allein
TTITLE3=Das Licht des Himmels
TTITLE4=Die Sonne scheint auch für dich
TTITLE5=Amazing Grace
TTITLE6=Nimm meine Hand
TTITLE7=Ich will dir nah sein
TTITLE8=Oh Happy Day
TTITLE9=Kleine Lichtlein
TTITLE10=Ave Maria
TTITLE11=Bald, schon bald
TTITLE12=Kinderherzen (Kinder sind die Hoffnung)
TTITLE13=Wo bist du hin
TTITLE14=Love Can Build A Bridge
TTITLE15=Was uns hilft - ist ein Lied
EXTD=
EXTT0=
EXTT1=
EXTT2=
EXTT3=
EXTT4=
EXTT5=
EXTT6=
EXTT7=
EXTT8=
EXTT9=
EXTT10=
EXTT11=
EXTT12=
EXTT13=
EXTT14=
EXTT15=
PLAYORDER=
